<?xml version="1.0" standalone="no"?>
<!DOCTYPE svg PUBLIC "-//W3C//DTD SVG 20010904//EN"
 "http://www.w3.org/TR/2001/REC-SVG-20010904/DTD/svg10.dtd">
<svg version="1.0" xmlns="http://www.w3.org/2000/svg"
 width="518.000000pt" height="518.000000pt" viewBox="0 0 518.000000 518.000000"
 preserveAspectRatio="xMidYMid meet">
<metadata>
Created by potrace 1.11, written by Peter Selinger 2001-2013
</metadata>
<g transform="translate(0.000000,518.000000) scale(0.100000,-0.100000)"
fill="#000000" stroke="none">
<path d="M398 4802 c-21 -4 -24 -38 -5 -55 56 -52 54 -52 56 2 1 51 -10 62
-51 53z"/>
<path d="M588 4802 c-35 -4 -42 -30 -36 -116 9 -102 55 -146 128 -122 58 19
77 72 72 197 -2 30 -6 37 -24 41 -45 8 -56 0 -49 -35 14 -64 -1 -157 -24 -157
-24 0 -37 48 -33 122 1 37 0 68 -2 70 -3 2 -17 2 -32 0z"/>
<path d="M888 4802 l-28 -3 0 -95 c0 -87 -1 -94 -20 -94 -15 0 -20 -7 -20 -25
0 -24 2 -25 75 -25 73 0 75 1 75 25 0 18 -5 25 -20 25 -19 0 -20 7 -20 94 0
52 -3 96 -7 98 -5 2 -20 2 -35 0z"/>
<path d="M1049 4799 c-10 -6 -14 -31 -14 -91 0 -67 4 -88 20 -110 25 -34 61
-47 101 -37 56 15 83 70 79 159 -4 76 -10 87 -49 82 -32 -4 -34 -6 -26 -31 15
-54 -2 -161 -25 -161 -24 0 -37 49 -32 123 2 37 2 67 -2 68 -3 0 -13 2 -22 4
-9 1 -23 -1 -30 -6z"/>
<path d="M1350 4796 c-6 -6 -10 -50 -10 -98 0 -81 -2 -88 -20 -88 -15 0 -20
-7 -20 -25 0 -24 2 -25 75 -25 73 0 75 1 75 25 0 18 -5 25 -20 25 -19 0 -20 7
-20 98 l0 97 -25 0 c-15 0 -30 -4 -35 -9z"/>
<path d="M2608 4799 c-10 -6 -2 -19 30 -51 l44 -43 -6 40 c-3 22 -5 43 -6 46
0 11 -48 17 -62 8z"/>
<path d="M2800 4801 c-13 -5 -16 -25 -15 -102 0 -113 14 -139 72 -139 29 0 33
3 33 25 0 18 -5 25 -20 25 -18 0 -19 7 -18 92 2 82 0 92 -18 98 -10 4 -26 5
-34 1z"/>
<path d="M2983 4802 c-15 -2 -23 -11 -24 -25 -1 -12 -3 -42 -4 -65 -5 -92 35
-154 101 -154 28 0 44 7 68 31 30 30 31 35 31 117 0 89 -6 102 -47 99 -20 -1
-21 -7 -22 -86 -2 -87 -8 -109 -31 -109 -25 0 -41 103 -25 159 9 32 -3 40 -47
33z"/>
<path d="M3208 4793 c-16 -19 -15 -136 0 -175 14 -34 55 -61 92 -60 68 2 107
72 98 178 -5 60 -16 74 -53 67 -22 -5 -23 -8 -18 -61 3 -32 1 -73 -4 -92 -11
-41 -38 -51 -49 -18 -10 32 -12 108 -3 141 5 18 4 27 -4 28 -7 0 -20 2 -29 4
-9 2 -23 -4 -30 -12z"/>
<path d="M3519 4799 c-12 -6 -15 -25 -14 -86 2 -91 -1 -103 -26 -103 -14 0
-18 -6 -15 -22 3 -21 9 -23 66 -26 35 -2 69 -1 76 2 16 6 6 46 -12 46 -17 0
-16 -5 -18 99 -1 75 -3 85 -22 91 -11 5 -27 4 -35 -1z"/>
<path d="M3749 4718 c-1 -24 0 -58 1 -75 1 -29 -1 -33 -24 -33 -21 0 -25 -4
-22 -22 3 -21 9 -23 73 -26 64 -3 71 -1 76 18 4 14 0 23 -11 27 -24 9 -31 23
-27 54 3 21 -5 37 -31 64 l-34 36 -1 -43z"/>
<path d="M1580 4646 c0 -29 -4 -36 -20 -36 -15 0 -20 -7 -20 -25 0 -24 2 -25
75 -25 41 0 75 3 75 8 0 8 -65 79 -92 101 -16 12 -18 10 -18 -23z"/>
<path d="M640 4504 c0 -9 101 -104 111 -104 12 0 -16 68 -38 92 -15 16 -73 26
-73 12z"/>
<path d="M816 4495 c-6 -17 21 -48 35 -40 5 4 9 -32 9 -85 l0 -90 36 -35 c43
-42 74 -46 74 -10 0 18 -5 25 -20 25 -19 0 -20 7 -20 125 l0 125 -54 0 c-38 0
-56 -4 -60 -15z"/>
<path d="M1058 4498 c-8 -21 2 -38 23 -38 20 0 21 -6 21 -125 0 -71 -2 -75
-22 -75 -15 0 -20 -7 -20 -25 0 -24 2 -25 75 -25 73 0 75 1 75 25 0 18 -5 25
-20 25 -19 0 -20 7 -20 125 l0 125 -54 0 c-34 0 -56 -5 -58 -12z"/>
<path d="M1318 4500 c-9 -6 -24 -30 -34 -55 -20 -54 -14 -160 11 -199 19 -28
59 -45 95 -40 36 6 80 58 82 97 0 17 2 43 2 57 3 44 -15 104 -36 128 -23 24
-88 30 -120 12z m80 -72 c17 -64 2 -168 -23 -168 -21 0 -32 29 -34 91 -3 96
38 151 57 77z"/>
<path d="M1542 4483 c2 -20 8 -27 21 -25 19 3 19 4 19 -93 0 -106 0 -105 -22
-105 -15 0 -20 -7 -20 -25 0 -24 2 -25 75 -25 73 0 75 1 75 25 0 18 -5 25 -20
25 -19 0 -20 7 -20 125 l0 125 -56 0 c-54 0 -55 0 -52 -27z"/>
<path d="M2987 4503 c-11 -10 -8 -43 3 -44 6 -1 16 -2 22 -3 8 -1 13 -18 13
-49 1 -40 6 -53 33 -79 l32 -33 1 30 c0 17 1 55 1 85 0 107 4 100 -50 100 -27
0 -52 -3 -55 -7z"/>
<path d="M3220 4485 c0 -18 5 -25 20 -25 23 0 22 4 24 -112 1 -82 0 -88 -19
-88 -14 0 -20 -7 -21 -25 -2 -24 0 -25 70 -25 40 0 75 3 78 6 12 11 -5 44 -22
44 -17 0 -18 11 -18 123 l1 122 -56 3 c-55 3 -57 2 -57 -23z"/>
<path d="M3473 4488 c-53 -58 -51 -208 2 -258 29 -27 83 -30 118 -7 58 38 65
204 11 262 -31 34 -101 35 -131 3z m87 -47 c11 -22 12 -112 1 -151 -10 -36
-39 -38 -47 -3 -9 36 -10 110 -1 146 9 31 32 36 47 8z"/>
<path d="M3700 4485 c0 -14 5 -26 10 -26 6 -1 16 -2 23 -3 8 -1 12 -28 13 -99
1 -92 0 -97 -20 -97 -15 0 -21 -7 -22 -25 -2 -25 0 -25 71 -25 69 0 73 1 77
24 4 20 0 26 -16 28 -20 3 -21 9 -22 113 -1 61 -2 116 -3 123 0 8 -19 12 -56
12 -52 0 -55 -1 -55 -25z"/>
<path d="M3944 4495 c-9 -22 1 -40 22 -40 17 0 19 -9 20 -97 2 -90 0 -98 -17
-98 -14 0 -19 -7 -19 -25 0 -24 2 -25 68 -25 38 0 71 3 74 6 11 10 -4 42 -21
47 -15 4 -17 17 -16 95 1 87 0 93 -26 122 -30 32 -76 41 -85 15z"/>
<path d="M1765 4447 c-20 -48 -19 -126 2 -178 36 -91 156 -81 181 15 7 26 4
35 -21 59 -34 33 -40 30 -44 -21 -4 -50 -9 -62 -28 -62 -23 0 -33 37 -31 113
2 59 -1 70 -21 89 l-23 21 -15 -36z"/>
<path d="M4230 4270 c0 -5 -9 -10 -20 -10 -15 0 -20 -7 -20 -25 0 -23 3 -25
50 -25 28 0 50 2 50 5 0 2 -13 18 -30 35 -16 17 -30 26 -30 20z"/>
<path d="M1079 4155 c-7 -1 -4 -45 2 -46 5 -1 15 -2 22 -3 7 0 14 -21 17 -47
5 -44 13 -56 53 -88 17 -13 18 -9 15 85 l-3 99 -52 0 c-29 1 -54 1 -54 0z"/>
<path d="M1330 4140 c-31 -31 -42 -68 -41 -137 1 -100 40 -154 108 -148 48 4
81 39 91 96 17 87 -5 176 -47 199 -33 17 -89 12 -111 -10z m81 -52 c12 -23 15
-122 5 -156 -4 -11 -13 -23 -22 -26 -21 -8 -34 33 -34 105 0 88 25 125 51 77z"/>
<path d="M1557 4133 c-2 -13 0 -24 4 -24 5 -1 15 -2 22 -3 8 -1 13 -30 15 -98
3 -93 2 -98 -18 -98 -15 0 -20 -7 -20 -25 0 -27 1 -27 70 -27 80 0 80 0 80 27
0 18 -5 25 -20 25 -19 0 -20 7 -20 120 0 66 -3 121 -7 121 -5 1 -29 2 -55 3
-41 2 -47 -1 -51 -21z"/>
<path d="M1797 4133 c-2 -13 0 -24 4 -24 5 -1 15 -2 22 -3 8 -1 13 -30 15 -98
3 -93 2 -98 -18 -98 -15 0 -20 -7 -20 -25 0 -27 1 -27 70 -27 80 0 80 0 80 27
0 18 -5 25 -20 25 -19 0 -20 7 -20 120 0 66 -3 121 -7 121 -5 1 -29 2 -55 3
-41 1 -47 -1 -51 -21z"/>
<path d="M2053 4138 c-34 -38 -43 -64 -43 -130 0 -75 22 -127 63 -146 78 -37
150 41 142 155 -2 34 -12 49 -55 92 -57 57 -77 62 -107 29z m77 -43 c8 -9 13
-45 12 -92 0 -63 -3 -79 -18 -90 -17 -13 -20 -11 -31 14 -23 53 -12 183 16
183 4 0 14 -7 21 -15z"/>
<path d="M3266 4147 c-17 -13 -17 -14 -1 -30 10 -11 25 -15 40 -11 21 5 25 1
34 -33 6 -21 26 -54 46 -73 l35 -34 0 35 c-1 60 -18 113 -45 137 -29 25 -81
29 -109 9z"/>
<path d="M3495 4138 c-32 -29 -44 -70 -41 -147 2 -56 5 -64 40 -100 38 -39 53
-43 104 -27 47 15 75 134 51 220 -20 71 -101 99 -154 54z m84 -55 c6 -16 9
-57 7 -92 -8 -114 -54 -117 -61 -4 -6 100 27 160 54 96z"/>
<path d="M3725 4152 c-9 -9 -5 -42 5 -43 6 -1 16 -2 22 -3 9 -1 13 -28 13 -95
0 -87 -1 -94 -22 -102 -21 -8 -25 -23 -11 -44 5 -8 77 -11 128 -6 6 1 10 12
10 26 0 18 -5 25 -19 25 -17 0 -19 8 -17 116 1 69 -3 118 -9 122 -12 8 -93 11
-100 4z"/>
<path d="M3963 4144 c-6 -17 3 -45 14 -43 25 4 28 -8 28 -90 0 -88 -5 -106
-28 -106 -10 0 -13 -14 -8 -42 2 -14 132 -8 141 7 12 19 1 40 -20 40 -16 0
-17 11 -16 116 1 68 -3 119 -9 122 -20 13 -97 9 -102 -4z"/>
<path d="M4210 4130 c-60 -64 -44 -237 25 -268 59 -27 125 12 139 81 25 122
-18 217 -97 217 -30 0 -45 -7 -67 -30z m90 -46 c11 -29 13 -97 4 -143 -5 -22
-12 -31 -26 -31 -23 0 -27 10 -31 80 -6 99 28 160 53 94z"/>
<path d="M4484 3970 c3 -48 -5 -64 -29 -65 -9 0 -11 -15 -6 -42 2 -14 132 -8
141 7 12 19 1 40 -22 40 -15 0 -19 5 -15 20 3 14 -6 31 -30 55 -19 19 -36 35
-38 35 -2 0 -2 -23 -1 -50z"/>
<path d="M2320 3925 c0 -8 -9 -15 -21 -15 -16 0 -20 -5 -17 -27 3 -25 6 -27
56 -27 30 -1 56 2 58 6 4 5 -63 78 -72 78 -2 0 -4 -7 -4 -15z"/>
<path d="M1340 3802 c0 -5 80 -82 85 -82 3 0 5 19 5 43 l0 43 -45 0 c-25 -1
-45 -2 -45 -4z"/>
<path d="M1590 3803 c-31 -9 -53 -55 -58 -123 l-4 -67 56 -57 c31 -31 58 -56
61 -56 21 0 57 29 71 59 22 47 22 157 -1 200 -22 43 -71 60 -125 44z m60 -58
c17 -21 16 -163 -1 -181 -26 -26 -43 0 -47 73 -4 67 9 123 27 123 4 0 14 -7
21 -15z"/>
<path d="M1800 3788 c0 -10 -1 -21 -2 -25 -2 -5 6 -8 17 -8 19 0 20 -7 20
-100 0 -89 -2 -100 -17 -99 -13 1 -18 -6 -18 -25 0 -26 1 -26 73 -26 67 0 72
2 75 23 3 20 -6 27 -30 23 -5 0 -8 57 -8 127 l0 128 -55 0 c-47 0 -55 -2 -55
-18z"/>
<path d="M2063 3798 c-32 -16 -48 -64 -48 -150 0 -62 4 -82 21 -105 43 -57
129 -52 161 11 22 42 22 161 0 203 -10 18 -26 37 -36 43 -25 13 -69 12 -98 -2z
m67 -54 c18 -21 17 -162 -1 -180 -26 -25 -41 0 -46 72 -5 67 7 124 26 124 4 0
14 -7 21 -16z"/>
<path d="M2303 3798 c-34 -17 -56 -86 -51 -162 4 -74 27 -114 72 -129 25 -8
33 -5 81 43 l52 51 -3 64 c-3 69 -23 118 -53 135 -25 13 -69 12 -98 -2z m74
-65 c4 -16 7 -57 6 -92 -2 -69 -17 -97 -43 -81 -11 7 -15 29 -15 87 0 43 3 86
7 96 11 26 37 20 45 -10z"/>
<path d="M3742 3794 c-31 -22 -44 -57 -48 -130 -5 -104 38 -164 117 -164 85 0
121 209 49 282 -33 32 -82 38 -118 12z m78 -70 c15 -44 7 -141 -13 -161 -22
-23 -38 7 -41 79 -5 107 29 158 54 82z"/>
<path d="M3962 3780 c2 -14 9 -26 16 -26 6 -1 15 -2 20 -3 4 0 6 -40 6 -89 -2
-112 -2 -112 -18 -106 -16 6 -29 -22 -19 -39 5 -8 35 -12 76 -13 l67 0 0 28
c0 22 -4 28 -17 26 -16 -3 -18 9 -20 112 -1 63 -2 120 -2 126 -1 6 -24 10 -56
10 -54 0 -56 -1 -53 -26z"/>
<path d="M4205 3802 c-14 -14 -3 -42 18 -47 22 -6 23 -10 22 -93 -1 -91 -7
-112 -31 -112 -9 0 -13 -8 -10 -22 3 -21 9 -23 74 -23 75 -1 73 -3 72 43 0 4
-8 7 -18 7 -15 0 -17 13 -18 115 -1 63 -2 120 -3 126 -1 10 -96 16 -106 6z"/>
<path d="M4442 3780 c2 -14 9 -26 16 -26 6 -1 15 -2 20 -3 4 0 7 -44 7 -96 1
-91 -1 -96 -22 -101 -16 -4 -22 -12 -19 -27 3 -19 10 -22 74 -23 l72 -1 0 28
c0 16 -3 28 -7 28 -27 -4 -30 6 -31 114 0 61 -1 117 -1 123 -1 6 -24 10 -56
10 -54 0 -56 -1 -53 -26z"/>
<path d="M4685 3776 c-9 -14 -20 -41 -25 -59 -7 -35 -5 -126 5 -135 3 -3 18 6
33 21 22 21 28 36 30 78 1 29 7 58 13 66 7 7 10 15 8 16 -2 1 -14 10 -26 20
-21 18 -22 18 -38 -7z"/>
<path d="M3541 3569 c-28 -27 -51 -53 -51 -57 0 -4 32 -7 70 -8 l70 0 0 28 c0
22 -4 28 -17 26 -14 -2 -18 4 -18 30 0 17 0 32 -1 32 -1 0 -24 -23 -53 -51z"/>
<path d="M1829 3443 c-16 -4 -49 -53 -49 -72 0 -14 49 -65 56 -59 2 3 6 19 8
37 5 45 21 60 42 39 12 -11 16 -35 16 -83 0 -60 3 -71 26 -92 23 -22 27 -22
35 -7 6 10 10 49 10 88 1 125 -48 175 -144 149z"/>
<path d="M2044 3441 c-8 -8 -4 -52 4 -47 23 14 33 -15 33 -89 l0 -78 34 33
c34 33 35 36 35 110 l0 76 -51 0 c-27 0 -52 -2 -55 -5z"/>
<path d="M3482 3420 c2 -14 9 -25 18 -25 24 0 26 -8 25 -107 0 -86 -2 -93 -20
-93 -15 0 -20 -7 -20 -25 0 -24 2 -25 73 -25 l72 -1 0 28 c0 15 -3 27 -7 27
-28 -5 -31 5 -31 104 0 159 6 144 -57 143 -53 -1 -56 -2 -53 -26z"/>
<path d="M3723 3433 c-8 -20 6 -46 21 -40 20 8 22 -5 21 -108 0 -83 -2 -90
-20 -90 -15 0 -20 -7 -20 -25 0 -24 3 -25 73 -25 l72 -1 0 28 c0 22 -4 28 -17
26 -16 -3 -18 8 -19 107 -1 61 -2 117 -3 126 -1 20 -101 22 -108 2z"/>
<path d="M3977 3430 c-58 -46 -58 -210 0 -269 23 -23 88 -23 117 0 42 33 59
144 33 222 -21 62 -99 87 -150 47z m84 -57 c14 -36 4 -164 -13 -174 -23 -14
-40 17 -42 77 -5 106 29 164 55 97z"/>
<path d="M4202 3420 c2 -17 9 -25 21 -24 20 2 19 10 21 -104 2 -90 1 -93 -22
-99 -15 -3 -21 -11 -18 -20 3 -8 6 -18 6 -22 0 -19 33 -4 66 30 l37 38 0 93
c-1 148 5 134 -58 134 -54 0 -56 -1 -53 -26z"/>
<path d="M4442 3421 c4 -32 36 -36 65 -9 32 30 29 35 -22 34 -42 -1 -46 -3
-43 -25z"/>
<path d="M3366 3392 c-15 -20 -20 -43 -20 -97 -1 -81 -18 -117 -43 -92 -8 8
-15 35 -16 60 -2 49 -4 49 -53 2 -18 -18 -19 -25 -10 -53 15 -44 35 -60 79
-67 46 -8 82 12 99 53 19 46 19 143 0 184 l-17 37 -19 -27z"/>
<path d="M3045 3070 c-15 -16 -22 -29 -16 -31 7 -3 12 -35 12 -84 1 -118 2
-114 -22 -110 -17 3 -20 0 -17 -23 3 -26 4 -27 76 -27 l72 -1 0 28 c0 22 -4
28 -17 26 -16 -3 -19 10 -23 122 -4 108 -7 125 -22 126 -9 1 -29 -11 -43 -26z"/>
<path d="M3263 3092 c-32 -5 -32 -49 -1 -54 22 -3 23 -8 23 -91 1 -94 -1 -102
-25 -102 -9 0 -15 -9 -15 -25 0 -24 2 -25 73 -25 l72 -1 0 28 c0 15 -3 27 -7
27 -29 -5 -31 5 -30 117 1 64 0 119 -3 122 -5 7 -51 9 -87 4z"/>
<path d="M3491 3071 c-55 -59 -52 -208 5 -258 37 -33 88 -31 125 6 16 16 29
38 30 48 0 10 3 29 5 43 3 14 2 49 -1 78 -9 69 -37 103 -93 109 -37 4 -46 1
-71 -26z m94 -132 c-1 -86 -15 -113 -45 -83 -20 20 -20 155 -1 178 13 16 16
16 30 1 12 -12 16 -36 16 -96z"/>
<path d="M3737 3092 c-25 -5 -18 -44 8 -52 18 -4 20 -14 21 -97 0 -51 -3 -94
-8 -94 -4 -1 -14 -2 -20 -3 -11 -1 -14 -14 -9 -44 0 -4 33 -8 71 -8 l70 0 0
28 c0 15 -3 27 -7 27 -29 -5 -31 4 -29 121 1 66 -1 120 -4 121 -18 3 -78 4
-93 1z"/>
<path d="M3977 3092 c-25 -5 -18 -45 8 -52 18 -4 21 -13 20 -68 l-1 -63 34 34
c30 30 34 41 35 90 1 32 0 57 -3 58 -18 3 -78 4 -93 1z"/>
<path d="M2899 2927 c-20 -18 -39 -46 -43 -61 -5 -19 -12 -26 -22 -22 -8 3
-24 -4 -35 -15 -17 -17 -19 -23 -8 -30 36 -23 102 -2 123 39 13 26 33 122 24
122 -2 0 -19 -15 -39 -33z"/>
<path d="M2813 2740 c-35 -14 -55 -55 -60 -124 -9 -108 30 -176 102 -176 66 0
106 68 100 171 -6 110 -62 161 -142 129z m70 -145 c0 -57 -4 -80 -16 -93 -29
-29 -42 -1 -42 94 0 65 4 87 15 94 29 18 44 -14 43 -95z"/>
<path d="M3038 2742 c-26 -5 -24 -52 2 -52 19 0 20 -7 20 -99 0 -88 -2 -99
-17 -97 -13 1 -18 -6 -18 -24 0 -24 2 -25 73 -25 l72 -1 0 28 c0 22 -4 28 -17
26 -16 -3 -18 9 -21 120 -2 87 -6 122 -15 123 -7 0 -23 1 -37 2 -14 2 -33 1
-42 -1z"/>
<path d="M3293 2740 c-35 -14 -55 -55 -59 -121 -8 -112 30 -179 100 -179 66 0
97 44 102 145 6 122 -57 190 -143 155z m72 -127 c2 -59 -10 -123 -23 -123 -4
0 -14 4 -22 10 -21 13 -21 177 0 190 26 16 43 -14 45 -77z"/>
<path d="M3533 2740 c-39 -16 -57 -57 -60 -134 -4 -109 41 -183 86 -141 20 17
20 19 4 38 -24 26 -26 159 -2 182 14 15 17 15 29 0 16 -19 21 -117 9 -159 -9
-29 -8 -29 36 14 29 28 45 53 45 68 0 38 -21 100 -40 117 -22 20 -78 28 -107
15z"/>
<path d="M3768 2742 c-22 -3 -28 -9 -28 -28 0 -18 5 -24 23 -24 20 0 67 36 67
51 0 5 -21 6 -62 1z"/>
<path d="M2659 2691 c-12 -13 -16 -39 -16 -95 0 -58 -5 -82 -17 -94 -22 -22
-37 -5 -43 50 -3 24 -6 44 -7 45 -1 1 -16 -11 -34 -27 -32 -28 -33 -29 -19
-63 18 -43 52 -67 93 -67 41 0 71 25 88 74 21 62 6 198 -22 195 -4 0 -14 -9
-23 -18z"/>
<path d="M2431 2461 c-8 -6 -9 -11 -3 -15 6 -3 14 -1 17 5 9 14 2 20 -14 10z"/>
<path d="M2321 2350 c-51 -49 -51 -50 -51 -112 0 -46 6 -72 21 -98 27 -44 36
-50 77 -50 72 0 105 47 105 150 1 83 -15 124 -58 144 -18 9 -35 16 -38 16 -2
0 -28 -22 -56 -50z m76 -44 c15 -68 1 -166 -22 -166 -21 0 -35 41 -35 105 0
94 42 138 57 61z"/>
<path d="M2550 2390 c-4 -3 -10 -14 -12 -25 -2 -14 3 -21 20 -23 21 -3 22 -7
22 -103 0 -92 -1 -99 -20 -99 -15 0 -20 -7 -20 -25 0 -24 1 -25 73 -22 66 2
72 4 75 25 3 20 -6 27 -30 23 -5 0 -8 55 -8 123 l0 124 -46 4 c-25 2 -49 1
-54 -2z"/>
<path d="M2808 2384 c-39 -20 -50 -47 -54 -127 -4 -78 11 -125 47 -151 27 -18
71 -21 101 -5 33 18 56 86 53 155 -3 73 -27 119 -68 134 -38 13 -46 12 -79 -6z
m74 -78 c9 -46 -1 -139 -17 -155 -25 -25 -39 2 -42 80 -2 84 11 123 37 109 10
-5 20 -20 22 -34z"/>
<path d="M3053 2390 c-33 -14 -52 -50 -59 -116 -12 -111 29 -184 102 -184 36
0 74 29 91 70 15 37 9 150 -10 186 -22 43 -78 63 -124 44z m69 -83 c7 -108 -3
-167 -27 -167 -22 0 -28 18 -31 92 -4 83 10 122 37 107 11 -5 20 -20 21 -32z"/>
<path d="M3293 2392 c-27 -3 -33 -7 -33 -28 0 -17 5 -24 20 -24 18 0 20 -7 20
-67 l0 -67 35 34 c32 31 35 39 35 91 0 62 -7 68 -77 61z"/>
<path d="M2193 2223 c-18 -18 -33 -40 -33 -47 0 -18 -26 -39 -38 -32 -11 7
-44 -39 -35 -48 10 -10 73 -7 94 4 10 6 25 23 33 38 16 32 29 110 18 115 -4 2
-22 -12 -39 -30z"/>
<path d="M2069 2032 c-24 -4 -12 -52 12 -52 17 0 19 -9 19 -100 0 -93 -1 -100
-20 -100 -15 0 -20 -7 -20 -25 0 -26 1 -26 73 -23 66 3 72 5 75 26 3 20 -6 27
-30 23 -5 0 -8 55 -8 124 0 112 -2 125 -17 126 -10 0 -29 1 -43 2 -14 2 -32 1
-41 -1z"/>
<path d="M2330 2027 c-40 -20 -61 -72 -59 -147 2 -71 17 -110 51 -134 26 -18
71 -21 99 -6 47 26 68 135 43 221 -11 37 -21 50 -48 63 -41 19 -53 20 -86 3z
m72 -85 c4 -79 -2 -137 -17 -151 -24 -24 -39 1 -43 74 -5 82 11 129 39 114 11
-5 20 -22 21 -37z"/>
<path d="M2570 2027 c-43 -21 -62 -72 -57 -152 5 -82 20 -118 54 -134 90 -41
156 30 148 162 -5 71 -26 112 -66 126 -40 14 -48 14 -79 -2z m71 -85 c4 -78
-2 -137 -16 -151 -25 -25 -39 2 -42 79 -3 85 11 124 38 109 11 -5 20 -22 20
-37z"/>
<path d="M2791 2032 c-6 -2 -11 -15 -11 -28 0 -17 6 -24 20 -24 19 0 20 -7 20
-100 0 -94 -1 -100 -21 -100 -15 0 -20 -5 -17 -22 5 -35 36 -34 74 3 l34 33 0
118 c0 105 -2 118 -17 119 -10 0 -30 2 -45 3 -14 1 -31 0 -37 -2z"/>
<path d="M3050 2027 c-28 -14 -47 -47 -56 -98 l-7 -34 66 64 c36 36 64 68 61
73 -7 12 -35 10 -64 -5z"/>
<path d="M4226 2015 c-9 -24 -8 -25 16 -34 21 -7 22 -14 23 -104 0 -52 -2 -94
-6 -91 -14 8 -40 -22 -33 -39 5 -14 19 -17 75 -17 l69 0 0 29 c0 21 -5 28 -17
27 -16 -1 -18 9 -19 73 l-2 73 -49 50 c-41 41 -51 47 -57 33z"/>
<path d="M1940 1968 c-14 -15 -20 -34 -19 -58 3 -65 -1 -96 -15 -116 -20 -26
-38 -8 -45 45 l-6 40 -31 -27 c-26 -23 -29 -31 -23 -55 15 -57 86 -85 140 -57
43 24 65 119 47 208 -10 48 -19 51 -48 20z"/>
<path d="M4114 1906 c-12 -12 -24 -43 -28 -69 -8 -54 -20 -65 -46 -42 -17 16
-20 15 -41 -6 l-22 -22 23 -19 c43 -34 114 -17 142 35 6 12 13 50 14 85 4 68
-6 77 -42 38z"/>
<path d="M4466 1771 c-13 -20 7 -41 37 -41 l30 0 -23 25 c-25 27 -35 30 -44
16z"/>
<path d="M1715 1740 c-3 -5 -1 -10 4 -10 6 0 11 5 11 10 0 6 -2 10 -4 10 -3 0
-8 -4 -11 -10z"/>
<path d="M1853 1680 c-35 -14 -59 -63 -62 -125 -4 -109 19 -160 81 -174 87
-20 141 75 117 206 -14 76 -75 117 -136 93z m64 -77 c21 -82 -6 -198 -39 -165
-17 17 -23 144 -9 171 16 29 39 26 48 -6z"/>
<path d="M2093 1680 c-48 -19 -73 -107 -59 -203 12 -78 76 -120 138 -90 49 23
64 75 59 195 -2 69 -77 122 -138 98z m65 -82 c16 -60 1 -168 -23 -168 -21 0
-35 41 -35 100 0 91 40 137 58 68z"/>
<path d="M2564 1671 c-17 -11 -36 -33 -42 -49 -12 -34 -11 -166 1 -178 4 -4
18 3 32 16 20 19 25 33 25 74 0 51 17 98 35 100 6 0 15 -15 21 -34 14 -44 24
-46 52 -10 l23 29 -28 30 c-36 39 -79 47 -119 22z"/>
<path d="M4500 1679 c-82 -30 -91 -232 -13 -285 88 -59 169 39 149 182 -11 87
-67 128 -136 103z m60 -75 c11 -28 12 -106 1 -144 -10 -36 -39 -38 -48 -3 -9
35 -9 132 0 156 10 25 36 21 47 -9z"/>
<path d="M1626 1655 c-15 -14 -22 -25 -17 -25 7 0 11 -37 11 -100 0 -93 -1
-100 -20 -100 -15 0 -20 -7 -20 -25 0 -26 1 -26 73 -23 66 3 72 5 75 26 3 17
-2 22 -17 22 -20 0 -21 5 -21 125 0 115 -1 125 -19 125 -10 0 -30 -11 -45 -25z"/>
<path d="M2295 1655 c0 -19 5 -25 23 -25 21 0 22 -3 22 -100 0 -93 -1 -100
-20 -100 -15 0 -20 -7 -20 -25 0 -26 1 -26 73 -23 66 3 72 5 75 26 3 17 -2 22
-17 22 -20 0 -21 5 -21 125 l0 125 -57 0 c-55 0 -58 -1 -58 -25z"/>
<path d="M3980 1656 c0 -18 6 -26 22 -28 21 -3 22 -8 23 -88 1 -100 -1 -110
-26 -110 -14 0 -18 -6 -15 -22 3 -21 9 -23 74 -26 l72 -3 0 30 c0 23 -4 29
-15 25 -19 -8 -26 23 -24 106 1 36 1 82 0 103 l-1 37 -55 0 c-52 0 -55 -2 -55
-24z"/>
<path d="M4220 1656 c0 -18 6 -26 22 -28 21 -3 22 -8 23 -88 1 -100 -1 -110
-26 -110 -14 0 -18 -6 -15 -22 3 -21 9 -23 74 -26 71 -3 72 -2 72 22 0 16 -7
27 -20 31 -17 5 -19 15 -19 88 1 45 0 99 0 120 l-1 37 -55 0 c-52 0 -55 -2
-55 -24z"/>
<path d="M3810 1598 c-18 -22 -25 -45 -26 -77 -2 -88 -3 -91 -25 -91 -15 0
-20 -5 -17 -22 3 -21 9 -23 76 -26 71 -3 72 -2 72 22 0 16 -7 27 -20 31 -19 6
-21 14 -19 88 2 126 1 128 -41 75z"/>
<path d="M1468 1496 c-21 -21 -38 -44 -38 -50 0 -6 -13 -17 -30 -24 -39 -17
-38 -38 0 -44 63 -9 118 59 108 133 -3 25 -3 25 -40 -15z"/>
<path d="M4743 1491 c7 -41 0 -61 -22 -61 -17 0 -27 -35 -12 -44 4 -3 26 14
49 37 l42 43 -31 30 -31 29 5 -34z"/>
<path d="M3630 1419 c-34 -34 -33 -54 1 -23 21 19 44 54 35 54 -2 0 -19 -14
-36 -31z"/>
<path d="M1414 1330 c-17 -4 -36 -10 -42 -14 -23 -14 -43 -67 -46 -119 -7
-129 54 -198 142 -161 42 17 64 67 63 145 0 104 -48 164 -117 149z m36 -69 c5
-11 10 -47 10 -81 0 -65 -12 -100 -35 -100 -19 0 -27 32 -27 100 0 68 8 100
27 100 8 0 19 -9 25 -19z"/>
<path d="M2133 1330 c-18 -4 -39 -13 -47 -20 -40 -32 -52 -176 -20 -231 36
-62 47 -61 119 11 60 59 65 68 65 108 0 91 -49 147 -117 132z m35 -62 c13 -13
16 -126 6 -165 -4 -13 -14 -23 -24 -23 -22 0 -30 27 -30 100 0 91 16 120 48
88z"/>
<path d="M4298 1331 c-41 -9 -66 -35 -78 -83 -13 -48 -8 -130 10 -169 32 -70
141 -69 170 2 17 39 21 125 10 170 -10 35 -41 72 -70 81 -8 2 -27 2 -42 -1z
m39 -78 c9 -26 9 -45 5 -131 -2 -34 -25 -53 -44 -34 -14 14 -20 137 -8 168 13
32 36 31 47 -3z"/>
<path d="M1596 1314 c-10 -26 -7 -32 17 -38 23 -5 24 -10 24 -101 1 -85 -1
-95 -17 -95 -19 0 -30 -17 -23 -37 3 -9 28 -13 78 -13 71 0 73 0 71 25 -1 18
-7 25 -21 25 -19 0 -20 6 -20 113 1 61 0 118 -3 125 -6 19 -98 16 -106 -4z"/>
<path d="M1839 1323 c0 -5 -2 -16 -4 -25 -2 -10 5 -18 19 -22 22 -5 23 -11 23
-97 0 -74 -3 -92 -16 -97 -21 -7 -30 -22 -24 -39 4 -9 26 -13 78 -13 69 0 72
1 71 23 -1 13 -9 24 -21 27 -18 5 -20 15 -21 115 -1 61 -2 116 -3 123 -1 13
-100 18 -102 5z"/>
<path d="M2314 1305 c0 -14 5 -25 11 -26 5 0 17 -2 27 -4 9 -2 29 10 44 26
l28 29 -55 0 c-52 0 -55 -1 -55 -25z"/>
<path d="M3538 1320 c-9 -6 -24 -30 -33 -55 -21 -54 -16 -158 9 -197 32 -48
100 -56 143 -16 51 47 51 202 1 256 -23 24 -88 30 -120 12z m77 -60 c11 -33
12 -113 3 -147 -10 -40 -35 -43 -49 -6 -12 32 -10 130 3 156 12 23 35 22 43
-3z"/>
<path d="M3762 1303 c2 -20 8 -27 21 -25 15 3 17 -7 17 -98 0 -93 -1 -100 -20
-100 -15 0 -20 -7 -20 -25 0 -24 2 -25 75 -25 73 0 75 1 75 25 0 18 -5 25 -20
25 -19 0 -20 7 -20 125 l0 125 -56 0 c-54 0 -55 0 -52 -27z"/>
<path d="M4000 1305 c0 -22 9 -30 33 -26 4 0 7 -44 7 -99 0 -93 -1 -100 -20
-100 -15 0 -20 -7 -20 -25 0 -24 2 -25 75 -25 73 0 75 1 75 25 0 18 -5 25 -20
25 -19 0 -20 7 -20 125 l0 125 -55 0 c-52 0 -55 -1 -55 -25z"/>
<path d="M4480 1305 c0 -22 9 -30 33 -26 4 0 7 -20 7 -46 l0 -48 34 35 c35 35
39 46 37 88 -1 20 -6 22 -56 22 -52 0 -55 -1 -55 -25z"/>
<path d="M1188 1216 c-27 -29 -31 -40 -31 -85 1 -43 -2 -51 -17 -51 -19 0 -30
-17 -23 -37 3 -9 28 -13 77 -13 72 0 73 0 69 24 -3 13 -13 26 -22 29 -15 4
-17 16 -16 86 1 44 0 81 -1 81 -2 0 -18 -15 -36 -34z"/>
<path d="M3413 1203 c-21 -23 -33 -45 -33 -63 0 -16 -3 -35 -6 -44 -8 -20 -33
-21 -40 -1 -5 12 -9 12 -30 -3 -13 -9 -24 -22 -24 -29 0 -18 37 -35 77 -35 46
0 79 33 91 89 9 38 8 111 0 118 -2 1 -18 -14 -35 -32z"/>
<path d="M900 928 c-45 -44 -53 -58 -54 -92 -3 -62 13 -114 44 -140 23 -19 35
-22 70 -17 61 8 83 42 88 131 5 77 -9 123 -43 152 -32 27 -49 22 -105 -34z
m70 -24 c23 -59 6 -174 -24 -174 -28 0 -40 102 -21 178 7 30 33 28 45 -4z"/>
<path d="M1117 974 c-15 -16 -6 -43 16 -46 21 -3 22 -7 23 -100 2 -96 1 -98
-21 -98 -20 0 -22 -4 -16 -26 6 -25 10 -27 74 -28 66 -1 67 -1 67 26 0 17 -6
28 -17 30 -16 3 -18 17 -18 123 l0 120 -50 3 c-28 2 -54 0 -58 -4z"/>
<path d="M1354 958 c1 -14 9 -25 21 -28 18 -5 20 -15 21 -103 2 -95 1 -97 -21
-97 -20 0 -22 -3 -16 -27 7 -25 10 -26 74 -27 56 -1 68 2 73 16 7 23 -3 38
-24 38 -15 0 -17 14 -17 123 l0 122 -56 3 c-53 3 -56 2 -55 -20z"/>
<path d="M1618 969 c-64 -37 -70 -215 -10 -270 25 -22 35 -25 72 -20 54 8 79
38 89 112 15 112 -24 189 -96 189 -21 0 -46 -5 -55 -11z m72 -58 c11 -21 13
-122 4 -158 -8 -29 -40 -30 -49 -2 -11 33 -7 150 6 165 16 19 26 18 39 -5z"/>
<path d="M1839 978 c-6 -14 -4 -48 2 -49 5 -1 15 -2 22 -3 8 -1 12 -20 13 -56
1 -30 2 -62 3 -69 1 -10 13 -4 35 18 32 31 34 36 32 94 l-2 62 -52 3 c-29 2
-53 2 -53 0z"/>
<path d="M3280 971 c0 -5 -3 -16 -6 -25 -5 -12 0 -16 20 -16 l26 0 0 -100 c0
-94 -1 -100 -21 -100 -16 0 -20 -5 -17 -27 3 -27 12 -29 126 -24 30 1 33 51 2
51 -19 0 -20 7 -20 125 l0 125 -55 0 c-30 0 -55 -4 -55 -9z"/>
<path d="M3517 961 c-6 -24 0 -31 25 -31 16 0 18 -10 18 -100 0 -94 -1 -100
-21 -100 -16 0 -20 -5 -17 -27 3 -29 5 -29 131 -24 26 1 24 51 -3 51 -19 0
-20 7 -20 125 l0 125 -54 0 c-45 0 -55 -3 -59 -19z"/>
<path d="M3771 958 c-31 -33 -44 -84 -39 -153 8 -95 41 -132 113 -126 35 2 84
50 86 84 1 12 3 39 4 60 4 57 -14 115 -43 137 -34 28 -95 27 -121 -2z m88 -63
c9 -34 7 -138 -4 -156 -12 -18 -36 -9 -46 18 -11 30 -10 117 2 151 13 33 37
27 48 -13z"/>
<path d="M4000 955 c0 -18 5 -25 20 -25 19 0 20 -7 20 -99 0 -90 -2 -99 -20
-104 -12 -3 -20 -14 -20 -26 0 -31 11 -26 63 27 l47 48 0 102 0 102 -55 0
c-52 0 -55 -1 -55 -25z"/>
<path d="M4240 955 c0 -14 6 -25 13 -25 8 0 24 11 37 25 l23 25 -36 0 c-33 0
-37 -3 -37 -25z"/>
<path d="M3154 941 c-19 -15 -21 -23 -14 -59 13 -75 -1 -152 -30 -152 -19 0
-22 11 -32 110 l-3 25 -32 -34 c-37 -38 -39 -48 -20 -94 19 -45 39 -58 87 -59
74 -1 112 62 103 172 -3 43 -26 111 -36 110 -1 -1 -12 -9 -23 -19z"/>
<path d="M696 725 c-25 -24 -46 -46 -46 -47 0 -2 29 -3 65 -3 64 0 65 1 65 26
0 18 -6 28 -20 32 -13 3 -18 10 -14 21 10 25 -1 19 -50 -29z"/>
<path d="M2941 732 c-8 -10 -24 -28 -35 -41 -20 -23 -20 -23 -1 -13 27 14 58
49 54 60 -2 6 -10 3 -18 -6z"/>
<path d="M648 600 c-29 -22 -46 -76 -42 -135 1 -22 2 -50 3 -61 1 -22 29 -33
63 -26 13 2 15 9 9 25 -9 27 -7 114 3 145 11 32 37 24 48 -13 5 -16 7 -60 4
-96 l-4 -66 31 3 c16 2 33 6 36 9 2 3 7 32 9 64 5 67 -10 123 -41 151 -27 26
-87 26 -119 0z"/>
<path d="M870 596 c0 -18 6 -25 23 -28 21 -3 22 -8 23 -89 0 -47 3 -90 7 -96
3 -5 19 -8 34 -6 l29 5 -1 116 0 117 -57 3 c-56 3 -58 2 -58 -22z"/>
<path d="M1137 609 c-31 -18 -49 -69 -50 -141 -1 -55 2 -72 15 -82 23 -17 64
-13 59 5 -2 8 -3 45 -4 82 0 50 4 73 16 85 29 29 42 0 42 -94 0 -46 2 -84 5
-85 63 -10 70 -2 70 87 0 63 -16 114 -44 136 -23 19 -81 23 -109 7z"/>
<path d="M1359 618 c-9 -39 -7 -47 14 -50 21 -3 22 -8 23 -91 0 -93 6 -105 47
-102 21 2 22 5 22 121 l0 119 -52 3 c-29 2 -53 2 -54 0z"/>
<path d="M1599 618 c-1 -2 -3 -13 -4 -25 -2 -16 3 -23 14 -23 10 0 22 -5 27
-10 7 -7 21 2 44 25 l34 35 -57 0 c-31 0 -58 -1 -58 -2z"/>
<path d="M2810 598 l-25 -23 28 -3 27 -3 0 -93 c0 -51 2 -95 5 -98 3 -2 18 -3
35 0 l30 4 0 119 0 119 -38 0 c-26 0 -46 -7 -62 -22z"/>
<path d="M3048 595 c-29 -28 -38 -63 -38 -141 0 -58 15 -82 50 -79 21 1 23 6
24 88 1 93 14 123 41 96 17 -16 25 -99 14 -146 -4 -18 -4 -33 0 -34 66 -8 75
2 74 90 -1 72 -20 123 -52 141 -36 19 -86 12 -113 -15z"/>
<path d="M3298 606 c-28 -21 -48 -81 -48 -145 0 -66 14 -89 52 -86 22 2 23 5
20 71 -4 75 9 124 32 124 23 0 39 -97 25 -157 -4 -18 -4 -33 0 -34 63 -8 71 0
75 72 6 105 -32 169 -101 169 -21 0 -46 -7 -55 -14z"/>
<path d="M3518 608 c-8 -21 2 -38 22 -38 17 0 20 -10 22 -97 3 -105 0 -101 58
-94 6 1 10 48 10 121 l0 120 -54 0 c-34 0 -56 -5 -58 -12z"/>
<path d="M3760 595 c0 -18 5 -25 20 -25 17 0 20 -7 20 -52 l0 -52 35 34 c29
28 35 41 35 77 l0 43 -55 0 c-52 0 -55 -1 -55 -25z"/>
<path d="M465 493 c-22 -24 -30 -44 -31 -73 -1 -23 3 -40 10 -41 6 0 21 -2 34
-3 17 -2 22 3 23 23 0 14 1 48 2 74 1 27 0 50 -3 51 -3 2 -18 -12 -35 -31z"/>
<path d="M2690 478 c-14 -17 -28 -46 -31 -64 -5 -28 -3 -33 18 -37 13 -2 29 1
37 7 23 18 29 126 7 126 -3 0 -17 -14 -31 -32z"/>
</g>
</svg>
